Coordinates
version=1
nRows=10
nColumns=34
inDegrees=yes

Units are S.I. units (second, meters, Newtons, ...)
If the header above contains a line with 'inDegrees', this indicates whether rotational values are in degrees (yes) or radians (no).

endheader
time	pelvis_tilt	pelvis_list	pelvis_rotation	pelvis_tx	pelvis_ty	pelvis_tz	hip_flexion_r	hip_adduction_r	hip_rotation_r	knee_angle_r	ankle_angle_r	subtalar_angle_r	mtp_angle_r	hip_flexion_l	hip_adduction_l	hip_rotation_l	knee_angle_l	ankle_angle_l	subtalar_angle_l	mtp_angle_l	lumbar_extension	lumbar_bending	lumbar_rotation	arm_flex_r	arm_add_r	arm_rot_r	elbow_flex_r	pro_sup_r	arm_flex_l	arm_add_l	arm_rot_l	elbow_flex_l	pro_sup_l
      0.00000000	      1.74876760	      2.02507796	    -19.53607828	      0.37343454	      0.88570883	      0.01617267	     -1.52698006	      5.99314455	      8.62041784	      7.77027853	     -1.13160497	     -0.60735914	      0.00000000	     32.72506885	     -4.66212011	     -4.32535887	     14.88830180	     -8.19889343	     -2.35282885	      0.00000000	     -6.97840729	      1.38232873	     12.72775110	     49.32171040	     -1.32228108	     55.97943776	    129.84230159	    114.66600911	     63.68910656	     11.15293807	     79.28941278	    112.09256120	     89.95134017
      0.01666670	      1.39325706	      3.01762320	    -19.55734034	      0.37278695	      0.88602820	      0.01680975	     -0.44350086	      4.92543549	     10.31287339	      8.21534270	      0.43873927	      0.54634015	      0.00000000	     32.84295684	     -3.42267060	     -5.41687095	     13.27255738	    -10.52071497	     -1.03164400	      0.00000000	     -5.44617128	      0.76045248	     12.54943744	     51.28710525	     -1.61046748	     56.18319520	    132.26768783	    113.79960493	     68.06243915	      9.36430419	     77.94493280	    113.98146662	     90.62665441
      0.03333330	      0.60769205	      3.65888635	    -19.40351989	      0.37344180	      0.88288208	      0.01783039	      0.44529243	      4.43703871	      9.06560197	      8.26361954	      2.55167498	      1.73269598	      0.00000000	     33.13898370	     -2.99256487	     -6.03019076	     11.59995594	    -13.47674876	     -1.30565924	      0.00000000	     -3.98277911	      0.53979171	     12.07711003	     52.09277032	     -1.68107428	     58.75693375	    133.11989972	    111.98259852	     68.88650601	      7.19236124	     77.32925142	    115.18831981	     91.84536850
      0.05000000	      0.67732216	      4.05090201	    -19.57537535	      0.37362115	      0.88516896	      0.01841911	      0.44793176	      4.10041431	      9.18979869	      8.24779462	      3.60432339	      2.50919300	      0.00000000	     32.72025830	     -2.59988308	     -6.58121739	     11.12765270	    -15.28634125	     -0.86249014	      0.00000000	     -3.78671923	      0.10417020	     12.36310851	     52.39371681	     -1.59929205	     60.64317548	    133.27653133	    111.47849249	     70.01231265	      7.24816305	     78.06310545	    115.81917071	     92.09207586
      0.06666670	      0.50967607	      4.20551651	    -19.35397353	      0.37409324	      0.88482516	      0.01832457	      0.65444644	      4.00918326	      8.96596275	      7.97599298	      4.26842326	      3.70063812	      0.00000000	     32.90345351	     -2.25516059	     -6.73262403	     11.34721920	    -16.31746376	     -0.78446006	      0.00000000	     -3.59954276	      0.20530050	     12.52417315	     52.75111288	     -1.66884436	     62.84488985	    133.79596840	    110.91596505	     70.11456391	      7.47118449	     79.10517895	    116.50322600	     92.18240203
      0.08333330	      0.45901170	      4.24344771	    -19.09340121	      0.37511489	      0.88400178	      0.01891205	      0.44897350	      4.04013313	      9.20448394	      7.58874095	      3.80705296	      4.77058801	      0.00000000	     32.87378393	     -1.99977422	     -7.16921034	     11.43942352	    -16.85210305	     -0.90862435	      0.00000000	     -3.42621931	      0.23352727	     12.25194152	     52.80066384	     -1.08875616	     63.52154459	    133.97329503	    110.56826277	     70.00800734	      7.69286998	     79.43428623	    116.65130401	     92.13119905
      0.10000000	      0.40399679	      4.26185416	    -18.91103443	      0.37560399	      0.88344555	      0.01831425	      0.44093373	      4.03130547	      9.44782826	      7.36169538	      3.92461887	      5.26132244	      0.00000000	     32.88466750	     -1.79255904	     -7.37239730	     11.51237661	    -17.11932827	     -1.01459325	      0.00000000	     -3.21216850	      0.17672365	     12.01130120	     52.88693920	     -1.07485826	     63.54973760	    134.17929685	    110.35656913	     69.69175303	      7.56981547	     79.67004856	    116.92848980	     92.06845381
      0.11666670	      0.32999507	      4.19255823	    -18.65164061	      0.37550519	      0.88249216	      0.01831277	      0.49989125	      4.12362046	      9.51274269	      7.34271460	      3.89914758	      5.33181472	      0.00000000	     32.86078701	     -1.64729401	     -7.41770787	     11.49739886	    -17.11195889	     -1.04008873	      0.00000000	     -3.26168941	      0.09830030	     12.11243282	     52.88172748	     -1.08112982	     63.54191126	    134.13135033	    110.33920929	     69.67669139	      7.44092043	     79.67361071	    116.91171561	     92.06002279
      0.13333330	     -0.04336017	      4.37725498	    -18.46631776	      0.37644439	      0.88321820	      0.01801467	      0.81839165	      3.96875596	      9.18738600	      7.09769320	      4.08905704	      6.50760229	      0.00000000	     33.05937173	     -1.33265039	     -7.13552565	     11.28103373	    -17.46660808	     -1.45259044	      0.00000000	     -2.47311021	      0.32318492	     11.40738196	     52.69143173	     -0.68050036	     63.49458535	    131.85033712	    108.89668280	     68.96576471	      6.04908497	     79.52668285	    117.12855777	     91.20069900
      0.15000000	     -0.07046592	      4.36363517	    -18.44580651	      0.37551024	      0.88545365	      0.01831823	      0.91747444	      3.99857492	      9.19497129	      7.04333935	      4.08692688	      6.51210538	      0.00000000	     32.94186855	     -1.28381010	     -7.14128630	     11.34252587	    -17.47227886	     -1.45105958	      0.00000000	     -2.46634074	      0.32077138	     11.40551283	     52.69078345	     -0.67587556	     63.50011226	    131.85510820	    108.89451554	     68.96055875	      6.05391022	     79.52931540	    117.13067921	     91.19943615
